<svg xmlns="http://www.w3.org/2000/svg" width="34.652" height="34.653"><defs><linearGradient id="a" x1=".663" x2=".114" y1=".444" y2="1" gradientUnits="objectBoundingBox"><stop offset="0" stop-color="#80589f"/><stop offset="1" stop-color="#9bd2f7"/></linearGradient></defs><g data-name="Group 269"><path fill="url(#a)" d="M33.933 10.108H28.88v-8l1.136-.8a.722.722 0 1 0-.829-1.176L.31 20.346a.722.722 0 1 0 .829 1.182l3.2-2.237v8.143h-2.17a.722.722 0 1 0 0 1.444h.722v5.053a.722.722 0 0 0 .722.722h30.32a.722.722 0 0 0 .722-.722V10.83a.722.722 0 0 0-.722-.722ZM5.778 18.28 27.436 3.12v6.988H25.27a.722.722 0 0 0 0 1.444h.722v2.888h-6.5a.722.722 0 1 0 0 1.444h.722v2.888h-6.5a.722.722 0 1 0 0 1.444h.722V23.1h-6.5a.722.722 0 1 0 0 1.444h.722v2.888h-2.88Zm27.433 14.929H4.335v-4.331h5.053a.722.722 0 0 0 .722-.722v-3.61h5.053a.722.722 0 0 0 .722-.722v-3.61h5.053a.722.722 0 0 0 .722-.722v-3.61h5.053a.722.722 0 0 0 .722-.722v-3.61h5.775v21.659Z" data-name="Path 582" transform="translate(-.003)"/></g></svg>