<svg xmlns="http://www.w3.org/2000/svg" width="25.478" height="36.397"><defs><linearGradient id="a" x1=".113" x2=".626" y1=".93" y2=".406" gradientUnits="objectBoundingBox"><stop offset="0" stop-color="#9bd2f7"/><stop offset="1" stop-color="#80589f"/></linearGradient></defs><g fill="url(#a)" data-name="sink (1)" transform="translate(-72)"><path d="M96.871 13.346h-4.625a7.83 7.83 0 0 0 2.2-5.46.607.607 0 0 0-.607-.607h-4.247V6.066a.607.607 0 0 0-.607-.607h-2.426a.607.607 0 0 0-.607.607v1.213h-.607V3.033a1.82 1.82 0 1 1 3.64 0 .607.607 0 0 0 1.213 0 3.033 3.033 0 0 0-6.066 0v4.246h-.607V6.066a.607.607 0 0 0-.607-.607h-2.425a.607.607 0 0 0-.607.607v1.213H75.64a.607.607 0 0 0-.607.607 7.85 7.85 0 0 0 2.207 5.46h-4.633a.607.607 0 0 0-.607.607v15.771a.607.607 0 0 0 .607.607h.607v5.46a.607.607 0 0 0 .607.607h1.82a.607.607 0 0 0 .6-.507l.438-2.626a.607.607 0 0 1 .6-.507H92.2a.607.607 0 0 1 .6.507l.438 2.626a.607.607 0 0 0 .6.507h1.82a.607.607 0 0 0 .607-.607v-5.46h.607a.607.607 0 0 0 .607-.607V13.952a.607.607 0 0 0-.608-.606Zm-9.706-6.673h1.213v.607h-1.213Zm-6.066 0h1.213v.607H81.1Zm-4.826 1.82H93.2a6.65 6.65 0 0 1-2.8 4.853H79.084a6.635 6.635 0 0 1-2.81-4.853Zm-3.06 6.066h10.919v14.558H73.213Zm21.838 20.625h-.7L94 33.065a1.814 1.814 0 0 0-1.8-1.521H77.274a1.814 1.814 0 0 0-1.795 1.521l-.353 2.119h-.7v-4.853h20.625Zm1.213-6.066H85.346V14.559h10.919Z" data-name="Path 489"/><g data-name="Group 242"><path d="M86.559 20.018a.607.607 0 0 0-.607.607v2.426a.607.607 0 0 0 1.213 0v-2.426a.607.607 0 0 0-.606-.607Z" data-name="Path 490"/><path d="M82.919 23.658a.607.607 0 0 0 .607-.607v-2.426a.607.607 0 1 0-1.213 0v2.426a.607.607 0 0 0 .606.607Z" data-name="Path 491"/></g></g></svg>