<svg xmlns="http://www.w3.org/2000/svg" width="36.063" height="25.593"><defs><linearGradient id="a" x1="-.343" x2=".5" y1="1.172" y2=".421" gradientUnits="objectBoundingBox"><stop offset="0" stop-color="#9bd2f7"/><stop offset=".16" stop-color="#00d7df"/><stop offset="1" stop-color="#80589f"/></linearGradient></defs><path fill="url(#a)" d="M43.481 99.195H42.9v-4.653a2.33 2.33 0 0 0-2.327-2.327v-9.888A2.33 2.33 0 0 0 38.246 80H13.817a2.33 2.33 0 0 0-2.327 2.327v9.888a2.33 2.33 0 0 0-2.327 2.327v4.653h-.581a.582.582 0 0 0-.582.582v2.323a.582.582 0 0 0 .582.582h.582v2.327a.582.582 0 0 0 .582.582h1.744a.581.581 0 0 0 .57-.468l.489-2.441h26.965l.486 2.444a.581.581 0 0 0 .57.468h1.745a.582.582 0 0 0 .582-.582v-2.327h.582a.582.582 0 0 0 .582-.582v-2.326a.582.582 0 0 0-.58-.582ZM12.653 82.327a1.165 1.165 0 0 1 1.163-1.163h24.43a1.165 1.165 0 0 1 1.163 1.163v9.888h-1.163v-2.327a2.33 2.33 0 0 0-2.327-2.327H28.94a2.33 2.33 0 0 0-2.327 2.327v2.327H25.45v-2.327a2.33 2.33 0 0 0-2.327-2.327h-6.98a2.33 2.33 0 0 0-2.327 2.327v2.327h-1.163Zm24.43 7.562v2.327h-9.306v-2.328a1.165 1.165 0 0 1 1.163-1.163h6.98a1.165 1.165 0 0 1 1.163 1.163Zm-12.8 0v2.327H14.98v-2.328a1.165 1.165 0 0 1 1.163-1.163h6.98a1.165 1.165 0 0 1 1.164 1.163Zm-13.96 4.653a1.165 1.165 0 0 1 1.163-1.163h29.087a1.165 1.165 0 0 1 1.163 1.163v4.653H10.327Zm.686 9.888h-.686v-1.745h1.035Zm30.723 0h-.682l-.349-1.745h1.035Zm1.163-2.908H9.163v-1.163H42.9Z" data-name="bed (1)" transform="translate(-8 -80)"/></svg>