<svg xmlns="http://www.w3.org/2000/svg" width="47.984" height="47.982"><defs><linearGradient id="a" x1=".5" x2=".5" y2="1" gradientUnits="objectBoundingBox"><stop offset="0" stop-color="#9bd2f7"/><stop offset="1" stop-color="#80589f"/></linearGradient></defs><g fill="url(#a)" data-name="dinning-table (1)"><path d="M37.356 35.701c0 .006.005-.007 0 0Z" data-name="Path 671"/><path d="M46.752 46.697c-.732-3.839-1.447-7.683-2.167-11.525-.027-.143-.135-.3.069-.408a3.646 3.646 0 0 0 1.736-3.117c.475-3.977.991-7.949 1.493-11.923.01-.084-.024-.194.1-.233v-.938c-.25-.329-.515-.628-1-.5s-.6.5-.625.93c0 .046-.024.094-.024.138 0 .31-.094.427-.456.434a3.118 3.118 0 0 0-3.062 2.794c-.207 1.561-.421 3.122-.63 4.683a3.305 3.305 0 0 0 1.766 3.68c.281.136.741.057.836.375a2.654 2.654 0 0 1-.089 1.014 1.934 1.934 0 0 1-.053.274 1.585 1.585 0 0 1-1.446 1.2c-.326.033-.469-.043-.588-.391a3.728 3.728 0 0 0-3.24-2.728 30.943 30.943 0 0 0-5-.023c-.276.013-.375-.05-.469-.289q-.662-1.67-1.362-3.326c-.142-.332-.127-.437.281-.432 2.063.02 4.125.007 6.183.01a1.677 1.677 0 0 0 1.495-.712 4.962 4.962 0 0 0 0-3.4 1.779 1.779 0 0 0-1.638-.708q-14.874.008-29.747 0a3.9 3.9 0 0 0-.469.016 1.576 1.576 0 0 0-1.443 1.615c-.007.406.026.815-.007 1.219a1.729 1.729 0 0 0 1.959 1.976c2.013-.046 4.032-.014 6.043-.008.163 0 .457-.12.286.281-.5 1.176-.963 2.363-1.442 3.545-.053.131-.1.24-.293.219-1.433-.148-2.87-.053-4.305-.064a3.972 3.972 0 0 0-4.12 2.931.325.325 0 0 1-.357.271 1.627 1.627 0 0 1-1.673-1.34c-.055-.307-.06-.623-.12-.927-.055-.281.048-.354.314-.427a3.109 3.109 0 0 0 2.334-3.42q-.291-2.65-.687-5.289a3.057 3.057 0 0 0-2.892-2.6c-.469-.018-.618-.159-.626-.584A.857.857 0 0 0 1 18.063c-.477-.131-.75.165-1 .5v.656a23.52 23.52 0 0 1 .366 2.583c.408 3.139.8 6.282 1.191 9.423.042.34.087.681.127 1.021A3.139 3.139 0 0 0 3.2 34.685a.378.378 0 0 1 .2.48c-.729 3.827-1.439 7.658-2.168 11.485a1.118 1.118 0 0 0 .446 1.33h2.166a.889.889 0 0 0 .656-.656c.133-.4.24-.808.368-1.21 1.037-3.257 2.047-6.523 3.066-9.786.387-1.24.255-1.056 1.419-1.053 1.384 0 1.041-.2 1.513 1.114a1.887 1.887 0 0 1-.06 1.487c-.413.943-.791 1.9-1.176 2.859-.793 1.969-1.612 3.928-2.395 5.9-.3.738-.136 1.112.547 1.343h3.657a1.4 1.4 0 0 0 .622-.772c.413-1.051.844-2.093 1.3-3.211.34 1.079.67 2.077.964 3.086a1.593 1.593 0 0 0 .578.9h2.156a.875.875 0 0 0 .617-1.175c-.533-2.79-1.046-5.584-1.585-8.374a1.74 1.74 0 0 1 .094-1.046q2.124-5.157 4.2-10.324a.715.715 0 0 1 .774-.512q2.833.021 5.668 0a.718.718 0 0 1 .774.512q2.076 5.173 4.2 10.324a1.748 1.748 0 0 1 .094 1.046c-.538 2.79-1.052 5.584-1.585 8.374a.874.874 0 0 0 .616 1.175h2.156a1.612 1.612 0 0 0 .579-.9c.293-1.009.623-2.006.963-3.086.456 1.118.891 2.156 1.3 3.211a1.4 1.4 0 0 0 .622.772h3.657a.826.826 0 0 0 .6-1.219c-.054-.163-.123-.321-.188-.48-1.064-2.617-2.091-5.25-3.219-7.841a3.074 3.074 0 0 1-.054-2.724l.01-.02a.123.123 0 0 1 0-.024c.062-.323.267-.422.577-.412.437.014.875.019 1.313 0a.567.567 0 0 1 .638.478c.488 1.63 1.009 3.25 1.513 4.875.685 2.206 1.388 4.407 2.063 6.616a.926.926 0 0 0 .681.75h2.156a1.1 1.1 0 0 0 .459-1.28Zm-2.021-17.4a1.639 1.639 0 0 1-1-1.654l.544-4.156c.047-.356.088-.713.15-1.065a1.588 1.588 0 0 1 1.28-1.263c.276-.043.383-.021.338.32q-.5 3.8-.954 7.609c-.033.3-.151.287-.358.213Zm-41.838-.21q-.456-3.806-.954-7.607c-.046-.344.07-.359.339-.317a1.524 1.524 0 0 1 1.269 1.214c.258 1.789.483 3.582.7 5.228a1.649 1.649 0 0 1-1 1.688c-.202.081-.319.094-.354-.202Zm.272 16.716a.923.923 0 0 1-.243.574 1.994 1.994 0 0 1 .158-.75l1.655-8.869c.075-.4.174-.793.218-1.194.032-.293.134-.412.438-.389.339.025.683.006 1.083.006a30742.92 30742.92 0 0 0-3.31 10.623ZM6.9 33.58a2.271 2.271 0 0 1 1.987-1.555c1.454-.068 2.914-.018 4.425-.018-.2.486-.383.938-.563 1.4a.233.233 0 0 1-.241.174Zm8.785 12.483c-.446-1.424-.911-2.844-1.328-4.276-.108-.375.237-.679.418-1.031l.99 5.288Zm2.786-18.854q-3.808 9.352-7.608 18.709c-.155.383-.342.529-.744.477a7.776 7.776 0 0 0-.929-.007c.578-1.424 1.135-2.8 1.7-4.183q3.105-7.623 6.2-15.252a.731.731 0 0 1 .838-.567c.872.043.872.01.542.819Zm5.474-2.411c-4.889 0-9.778-.006-14.667.009-.392 0-.525-.094-.483-.486.038-.354-.113-.831.067-1.044.213-.253.7-.082 1.073-.083l28.725-.014c.427 0 .547.1.533.533-.031 1.083-.009 1.084-1.1 1.084Zm9.621 17.236c-.41 1.219-.774 2.459-1.156 3.69a1.268 1.268 0 0 1-.239.615 2.3 2.3 0 0 1 .151-.8l.907-4.919c.208.543.518.876.336 1.41Zm5.063 3.96c.046.113.094.227.151.375-1.444.063-1.442.062-1.947-1.179q-3.73-9.157-7.458-18.316a.748.748 0 0 1-.121-.478h1.2c.3-.006.291.249.359.417q1.682 4.1 3.348 8.206 2.239 5.487 4.47 10.974ZM35.57 33.583c-.124 0-.256.019-.317-.133l-.58-1.451c1.492 0 2.926-.043 4.357.015a2.215 2.215 0 0 1 2.017 1.57Zm9.282 12.3c-1.125-3.616-2.227-7.126-3.342-10.694.442 0 .839.006 1.236 0 .219 0 .243.137.273.3q.607 3.259 1.219 6.515c.2 1.086.4 2.172.609 3.258a1.194 1.194 0 0 1 0 .621Z" data-name="Path 672"/><path d="M30.708 8.819c-1.3-1.075-2.58-2.162-3.888-3.228a.952.952 0 0 1-.432-.9 12.282 12.282 0 0 0 0-1.451 1.548 1.548 0 0 0-1.254-1.586c-.3-.068-.375-.188-.347-.46A1.137 1.137 0 0 0 24.273 0h-.563a1.134 1.134 0 0 0-.52 1.194c.032.271-.045.393-.347.459a1.547 1.547 0 0 0-1.255 1.586 27.14 27.14 0 0 0 0 1.639.664.664 0 0 1-.281.589c-1.374 1.125-2.734 2.275-4.1 3.412a.818.818 0 0 0-.362.97.855.855 0 0 0 .925.552c.906-.008 1.811 0 2.719-.007.226 0 .3.044.33.3a3.188 3.188 0 0 0 6.35 0c.025-.247.094-.307.325-.3.874.011 1.748 0 2.625.008.453.007.844-.064 1.023-.549s-.108-.758-.434-1.034Zm-6.686-5.625c.774 0 .774 0 .774.784 0 .816 0 .816-.834.816-.773 0-.773 0-.773-.782 0-.819 0-.819.833-.819Zm1.545 7.517a1.607 1.607 0 0 1-3.147.012c-.046-.222-.03-.346.259-.329.434.026.871.007 1.306.007s.872.015 1.307 0c.257-.018.325.06.275.309Zm-5.74-1.93a17.211 17.211 0 0 1 2.813-2.26 3.2 3.2 0 0 1 2.713 0 17.258 17.258 0 0 1 2.813 2.261Z" data-name="Path 673"/></g></svg>