<svg xmlns="http://www.w3.org/2000/svg" width="36.186" height="27.846"><defs><linearGradient id="a" x2="1" y1=".505" y2=".505" gradientUnits="objectBoundingBox"><stop offset="0" stop-color="#9bd2f7"/><stop offset="1" stop-color="#80589f"/></linearGradient></defs><path fill="url(#a)" d="M36.186 60.413a1.413 1.413 0 0 1-1.413 1.414h-6.927v6.926a1.414 1.414 0 0 1-1.413 1.413h-6.927v6.926a1.414 1.414 0 0 1-1.414 1.413h-6.925v6.926a1.414 1.414 0 0 1-1.413 1.414H1.413a1.413 1.413 0 1 1 0-2.827H8.34v-6.925a1.413 1.413 0 0 1 1.414-1.413h6.926v-6.927a1.414 1.414 0 0 1 1.413-1.413h6.926v-6.927A1.413 1.413 0 0 1 26.433 59h8.34a1.413 1.413 0 0 1 1.413 1.413Zm-5.308 14.826L24.1 82.02v-1.959a1.413 1.413 0 1 0-2.827 0v5.371a1.416 1.416 0 0 0 1.413 1.413h5.371a1.413 1.413 0 1 0 0-2.827H26.1l6.781-6.78a1.414 1.414 0 0 0-2-2Z" data-name="stairs (1)" transform="translate(0 -59)"/></svg>