<svg xmlns="http://www.w3.org/2000/svg" width="53.078" height="44.817"><defs><linearGradient id="a" x1=".5" x2=".5" y2="1" gradientUnits="objectBoundingBox"><stop offset="0" stop-color="#9bd2f7"/><stop offset="1" stop-color="#80589f"/></linearGradient></defs><path fill="url(#a)" d="M97.914 159.978a.47.47 0 0 1-.3-.478 4.125 4.125 0 0 0-.614-2.055 4.709 4.709 0 0 0-4.317-2.377c-6.081.01-12.152 0-18.228.01-.38 0-.566-.023-.622-.5a2.487 2.487 0 0 0-2.468-2.121c-.424-.007-.848-.021-1.273 0-.31.02-.379-.092-.373-.385.017-.972.02-1.943 0-2.915a2.356 2.356 0 1 0-4.708.144c-.011 2.9 0 5.8 0 8.691v11.234c0 .909.122 1.027 1.048 1.027h2.809c.655 0 .848-.2.848-.848 0-1.483.023-2.97-.013-4.452-.01-.461.134-.532.556-.53 3.938.017 7.877.01 11.815.01q6.016 0 12.029-.008c.385 0 .509.074.5.485-.028 1.5-.014 3-.008 4.5 0 .66.188.84.856.848h2.97c.689 0 .877-.191.878-.877v-7.1a2.363 2.363 0 0 0-1.385-2.303Zm-4.966-3.7a3.5 3.5 0 0 1 3.438 2.947c.085.441-.021.532-.451.53-4.08-.016-8.161-.008-12.241-.008h-.636q-6.412 0-12.825.01c-.424 0-.532-.117-.516-.526.031-.848.02-1.7 0-2.545 0-.3.031-.424.387-.424 7.616.014 15.23.005 22.843.018Zm-23.229-2.42c.035-.2.133-.212.283-.211.457 0 .915-.018 1.37.014a1.353 1.353 0 0 1 1.273 1.069c.058.259 0 .355-.272.346-.385-.014-.772 0-1.158 0h-.527c-1.001-.001-1.159-.2-.969-1.215ZM97.6 169.053a9.119 9.119 0 0 0-1.376 0c-.369.028-.424-.119-.424-.445.016-1.466 0-2.933 0-4.4 0-.826-.133-.963-.942-.963H69.487c-.863 0-.972.11-.973.981 0 1.466-.013 2.933.008 4.4 0 .359-.1.46-.448.438a9.119 9.119 0 0 0-1.376 0c-.424.041-.481-.141-.478-.509.017-2.121.008-4.242.008-6.364v-12.877c0-.916.669-1.5 1.442-1.28a1.124 1.124 0 0 1 .832 1.155c.014 1.218 0 2.437 0 3.656q0 3.705.014 7.412a.61.61 0 0 0 .694.68H96.5c1.2 0 1.6.39 1.6 1.573 0 2.014-.011 4.027.01 6.041.002.411-.11.531-.51.502Z" data-name="Path 674" transform="translate(-55.812 -126.039)"/><path fill="url(#a)" d="M53.079 16.136a1.143 1.143 0 0 0-.665-1.181Q39.776 7.614 27.164.229a1.2 1.2 0 0 0-1.4-.007c-4.091 2.428-8.2 4.826-12.3 7.235Q7.012 11.243.556 15.024A.974.974 0 0 0 0 16c.028.882 0 1.768.011 2.65.01.642.424.882.99.578.383-.205.755-.431 1.208-.692v24.808c0 .707.175.88.871.882H5.1c.947 0 1.075-.124 1.075-1.055V16.727a.735.735 0 0 1 .39-.761Q16.268 10.3 25.94 4.595a.883.883 0 0 1 1.039-.007q9.441 5.529 18.91 11.018a1.72 1.72 0 0 1 1.025 1.739c-.044 8.626-.027 17.244-.027 25.866 0 .911.113 1.02 1.045 1.02h1.848c.931 0 1.044-.112 1.044-1.021V18.52c.462.266.837.491 1.219.7.593.324 1.01.086 1.02-.588.015-.832-.029-1.661.016-2.496ZM4.322 43.033c-.9-.038-.9-.01-.9-.928q0-11.79-.011-23.58c0-.52.1-.861.608-1.063a8.344 8.344 0 0 0 .94-.535v.635q0 12.423.013 24.851c.002.536-.16.642-.65.62Zm44.881 0c-1.131 0-1.131.016-1.131-1.131v-25c.509.3.909.553 1.331.768.3.154.228.407.228.642v18.92c0 1.785-.01 3.568.008 5.353.011.354-.092.444-.436.444Zm2.68-26.556c-.034.383-.008.771-.008 1.243l-8.8-5.132q-7.947-4.633-15.884-9.277a1.24 1.24 0 0 0-1.444-.011q-9.99 5.9-20 11.757c-1.485.871-2.97 1.739-4.538 2.654 0-.543.008-1.01 0-1.475-.007-.293.243-.322.409-.424Q7.581 12.3 13.552 8.807q6.223-3.651 12.438-7.312a.8.8 0 0 1 .946 0Q39.208 8.673 51.5 15.819a.62.62 0 0 1 .386.655Z" data-name="Path 675" transform="translate(-.004 -.002)"/><path d="M25.313 29.965h10.523v12.713H25.313z" data-name="Rectangle 554"/><path fill="url(#a)" d="M184.975 177.267a1.412 1.412 0 0 0-1.51-1.512c-.639 0-1.273-.007-1.916 0-.167 0-.211-.038-.211-.206q.013-1.585 0-3.166a1.581 1.581 0 0 0-1.131-1.522c-.065-.018-.15.018-.2-.061h-2.657c0 .033-.03.037-.057.047a1.577 1.577 0 0 0-1.194 1.676v3.045c0 .153-.038.189-.188.188-.7-.007-1.4-.016-2.1 0a1.379 1.379 0 0 0-1.348 1.382v11.718a1.389 1.389 0 0 0 1.049 1.342c.141.034.174.086.161.212a2.3 2.3 0 0 0 0 .242.724.724 0 0 0 .444.809h.324a.8.8 0 0 0 .447-.909c-.018-.3 0-.3.3-.3h7.161c.167 0 .233.037.205.206a1.189 1.189 0 0 0 0 .2.725.725 0 0 0 .444.809h.324a.73.73 0 0 0 .445-.809 2.677 2.677 0 0 1 0-.3.116.116 0 0 1 .1-.141 1.4 1.4 0 0 0 1.112-1.5Zm-10.283 11.783c-.255-.013-.511 0-.766 0-.165 0-.25-.076-.249-.243v-11.474c0-.332.027-.361.352-.361.222 0 .444.011.665 0 .158-.011.2.038.2.2v11.7c-.003.148-.051.185-.202.178Zm2.616-15.05v-1.556c0-.3.133-.424.424-.424h1.98a.375.375 0 0 1 .424.424v3.145c0 .124-.02.174-.161.173-.833-.007-1.667 0-2.5 0-.129 0-.171-.028-.17-.165.007-.535.003-1.066.003-1.597Zm3.835 15.049q-2.431-.011-4.86 0c-.141 0-.189-.023-.189-.182q.009-5.857 0-11.716c0-.141.028-.189.184-.189q2.439.01 4.88 0c.173 0 .189.059.188.2v11.677c.002.168-.033.212-.203.211Zm2.357 0c-.256 0-.512-.011-.766 0-.154.008-.185-.038-.184-.187v-11.677c0-.192.057-.233.232-.222.235.014.471 0 .707 0s.283.057.283.273v11.537c-.007.189-.083.277-.272.274Z" data-name="Path 676" transform="translate(-148.081 -146.647)"/></svg>