<svg xmlns="http://www.w3.org/2000/svg" width="35.359" height="27.992"><defs><linearGradient id="a" x1=".5" x2=".5" y2="1" gradientUnits="objectBoundingBox"><stop offset="0" stop-color="#9bd2f7"/><stop offset="1" stop-color="#80589f"/></linearGradient></defs><path fill="url(#a)" d="M47.781 25a2.578 2.578 0 0 0-2.581 2.578v14.365h-7.364V38.26h5.893v-2.947H21.63v2.947h5.893v3.683h-7.367V27.578a2.578 2.578 0 1 0-5.156 0v24.678a.737.737 0 0 0 .737.737h3.683a.737.737 0 0 0 .737-.737v-8.84h7.366V47.1H21.63v2.947h22.1V47.1h-5.894v-3.684H45.2v8.84a.737.737 0 0 0 .737.737h3.683a.737.737 0 0 0 .737-.737V27.578A2.578 2.578 0 0 0 47.781 25ZM36.363 47.1H29v-3.684h7.366Zm0-5.156H29V38.26h7.366Z" data-name="Path 487" transform="translate(-15 -25)"/></svg>