<svg xmlns="http://www.w3.org/2000/svg" width="36.277" height="36.277" data-name="kitchen (1)"><defs><linearGradient id="a" x2=".388" y1=".874" y2=".19" gradientUnits="objectBoundingBox"><stop offset="0" stop-color="#9bd2f7"/><stop offset="1" stop-color="#80589f"/></linearGradient></defs><path fill="url(#a)" d="M35.673 104h-13.3a.6.6 0 0 0-.6.6v14.511h-3.03v-.6h.6a.6.6 0 0 0 0-1.209H13.3a.6.6 0 0 0 0 1.209h.6v.6H7.86v-.6h.6a.6.6 0 0 0 0-1.209H2.418a.6.6 0 0 0 0 1.209h.6v.6H.6a.6.6 0 0 0-.6.6v12.092a.6.6 0 0 0 .6.6h35.073a.6.6 0 0 0 .6-.6V104.6a.6.6 0 0 0-.6-.6Zm-12.7 1.209h12.095v8.465H22.976Zm-7.86 13.3h2.418v.6h-2.416Zm-10.883 0h2.421v.6H4.232Zm-3.023 1.814h8.467v2.418H1.209Zm0 3.628h8.467v7.255H1.209Zm9.674-3.628h10.885v10.883H10.883Zm24.185 10.883h-12.09v-16.323h12.092Z" data-name="Path 492" transform="translate(0 -96.14)"/><g fill="url(#a)" data-name="Group 243" transform="translate(1.208)"><path d="M18.744 25.394h-7.26a.6.6 0 0 0-.6.6v7.255a.6.6 0 0 0 .6.6h7.255a.6.6 0 0 0 .6-.6v-7.255a.6.6 0 0 0-.595-.6Zm-.6 7.255h-6.046v-6.046h6.046Z" data-name="Path 493"/><path d="M22.972 13.302a.6.6 0 0 0-.6.6v2.418a.605.605 0 0 0 1.209 0v-2.418a.6.6 0 0 0-.609-.6Z" data-name="Path 494"/><path d="M22.972 22.976a.6.6 0 0 0 .6-.6v-2.428a.605.605 0 0 0-1.209 0v2.418a.6.6 0 0 0 .609.61Z" data-name="Path 495"/><path d="M.606 10.883h18.138a.6.6 0 0 0 .465-.992l-6.046-7.255a.6.6 0 0 0-.465-.217h-.6V.6a.6.6 0 0 0-.6-.6H7.861a.6.6 0 0 0-.6.6v1.818h-.6a.6.6 0 0 0-.465.217L.141 9.891a.6.6 0 0 0 .465.992Zm7.86-9.674h2.418v1.209H8.466Zm-1.53 2.418h5.476l5.039 6.046H1.897Z" data-name="Path 496"/></g></svg>