<svg xmlns="http://www.w3.org/2000/svg" width="36.131" height="28.289"><defs><linearGradient id="a" x1=".5" x2=".5" y1="11.408" y2="-7.097" gradientUnits="objectBoundingBox"><stop offset=".322" stop-color="#a163f5"/><stop offset=".466" stop-color="#b074ee"/><stop offset=".752" stop-color="#d8a1dd"/><stop offset=".898" stop-color="#efbad3"/></linearGradient><linearGradient id="b" x1="2.15" x2=".136" y1="1.088" y2=".049" gradientUnits="objectBoundingBox"><stop offset="0" stop-color="#80589f"/><stop offset=".786" stop-color="#8c8dc6"/><stop offset="1" stop-color="#9bd2f7"/></linearGradient><linearGradient id="c" x1=".687" x2="-.188" y1=".632" y2="-.984" gradientUnits="objectBoundingBox"><stop offset="0" stop-color="#a163f5"/><stop offset="1" stop-color="#9bd2f7"/></linearGradient></defs><g data-name="sofa (1)"><path fill="url(#a)" d="M204.759 208.286a3.881 3.881 0 0 0-1.011 1.051.441.441 0 0 0 .738.482 3 3 0 0 1 .782-.813.441.441 0 1 0-.51-.719Z" data-name="Path 484" transform="translate(-189.453 -199.773)"/><path fill="url(#b)" d="M17.325 120.8H14.1V100.595a6.17 6.17 0 0 1 5.993-6.32 6.145 6.145 0 0 1 5.979 5.919 3.888 3.888 0 0 0-3.429 3.855v.688a.441.441 0 0 0 .441.441h1.961a1.608 1.608 0 0 0 3.124 0h1.8a.441.441 0 0 0 .441-.441v-.688a3.888 3.888 0 0 0-3.453-3.859 7.03 7.03 0 0 0-6.863-6.8 7.049 7.049 0 0 0-6.874 7.162V120.8h-2.779a.441.441 0 1 0 0 .881h6.885a.441.441 0 1 0 0-.881Zm9.275-15.277a.73.73 0 0 1-.608-.344h1.216a.73.73 0 0 1-.608.344Zm2.921-1.474v.248h-6v-.248a3 3 0 0 1 6 0Z" data-name="Path 485" transform="translate(-10 -93.393)"/><path fill="url(#c)" d="M161.9 313.9v-2.92a1.857 1.857 0 0 0-1.869-1.84h-8.063a1.852 1.852 0 0 0-1.322.545c-.036.037-.07.074-.1.113a1.878 1.878 0 0 0-1.432-.659h-8.109a1.857 1.857 0 0 0-1.869 1.84v2.921a2.131 2.131 0 0 0-1.943 2.1v5.136a.441.441 0 0 0 .441.441h3.416a.441.441 0 0 0 .441-.441v-.587l18.2.006v.581a.441.441 0 0 0 .441.441h3.416a.441.441 0 0 0 .441-.441V316a2.133 2.133 0 0 0-2.089-2.1Zm-10.63-3.589a.977.977 0 0 1 .7-.286h8.063a.975.975 0 0 1 .988.959v3.072a2.118 2.118 0 0 0-1.335 1.957v.173h-8.7v-5.154a1 1 0 0 1 .288-.725Zm-10.268-.286h8.109a.975.975 0 0 1 .988.96v5.2h-8.613v-.168a2.121 2.121 0 0 0-1.468-2.017v-3.02a.975.975 0 0 1 .988-.959Zm-.4 10.683h-2.535v-4.7a1.268 1.268 0 0 1 2.535 0Zm.881-1.028v-2.619h18.195v2.62Zm21.617 1.02h-2.535V316a1.268 1.268 0 0 1 2.535 0Z" data-name="Path 486" transform="translate(-127.853 -293.296)"/></g></svg>