<svg xmlns="http://www.w3.org/2000/svg" width="43.776" height="25.821"><defs><linearGradient id="a" x1=".034" x2=".758" y1=".926" y2=".087" gradientUnits="objectBoundingBox"><stop offset="0" stop-color="#9bd2f7"/><stop offset="1" stop-color="#80589f"/></linearGradient></defs><path fill="url(#a)" d="M36.015 210.88A1.283 1.283 0 0 0 34.8 210H8.976a1.283 1.283 0 0 0-1.218.88l-7.7 23.256a1.282 1.282 0 0 0 1.218 1.685h41.216a1.282 1.282 0 0 0 1.218-1.685Zm.43 9.466H23.169v-7.781h10.7ZM9.9 212.565h10.7v7.781H7.328ZM6.48 222.91H20.6v10.346H3.056Zm16.69 10.346V222.91h14.124l3.423 10.346Zm0 0" data-name="Path 583" transform="translate(.001 -210)"/></svg>