<svg xmlns="http://www.w3.org/2000/svg" width="47.536" height="44.484"><defs><linearGradient id="a" x1="-.256" x2=".864" y1="1" gradientUnits="objectBoundingBox"><stop offset="0" stop-color="#9bd2f7"/><stop offset="1" stop-color="#80589f"/></linearGradient></defs><path fill="url(#a)" d="M121.261 68.091c0-1.094-.309-1.409-1.388-1.411h-18.085c-1.085 0-1.388.309-1.389 1.407V74.8c0 .164.129.442-.273.376a14.208 14.208 0 0 0-2.506-.076 9.312 9.312 0 0 0-9.3 9.432v3.382c0 .241-.015.368-.32.444a3.4 3.4 0 0 0-2.575 3.828c.03.25.137.465.38.477.41.019.346.273.346.528v7.43c0 1.111.319 1.43 1.433 1.43h32.186c1.185 0 1.491-.3 1.493-1.475V84.325q0-8.12-.002-16.234Zm-30.91 32.535c0 .245-.038.377-.329.372a58.248 58.248 0 0 0-2.508 0c-.319.01-.316-.149-.314-.375V96.78c0-1.23.012-2.461 0-3.691 0-.319.079-.4.4-.394.785.023 1.571.021 2.355 0 .3-.008.41.063.41.392q-.03 3.768-.013 7.539Zm.357-8.979c-.647-.015-1.295 0-1.941 0s-1.3-.018-1.943.007c-.321.011-.368-.109-.324-.388a2.294 2.294 0 0 1 4.532.008c.055.3-.029.375-.324.368ZM104.719 101c-2.149-.012-4.3-.007-6.448-.007s-4.3 0-6.45.007c-.316 0-.439-.056-.436-.41q.031-2.891 0-5.784c0-.35.113-.41.433-.41q6.448.014 12.9 0c.319 0 .439.059.435.41q-.026 2.891 0 5.784c.005.344-.112.406-.432.4Zm-12.611-9.417c-.2-.655.159-.835.7-.966a22.264 22.264 0 0 1 11.127.068c.386.1.648.228.5.714a2.69 2.69 0 0 0-.018.714c0 .291.127.532.417.558.379.034.317.273.3.5-.021.324-.282.174-.428.174-2.15.011-4.3.008-6.452.008s-4.266 0-6.4-.01c-.152 0-.44.182-.466-.191-.016-.246-.023-.452.324-.489.267-.029.391-.252.4-.521a1.87 1.87 0 0 0-.008-.566Zm12.947-1.922c-.137.191-.239.208-.459.145a22.214 22.214 0 0 0-12.654 0c-.221.064-.325.045-.458-.145a3.252 3.252 0 0 0-1.851-1.288c-.154-.044-.273-.072-.273-.288a34.454 34.454 0 0 1 .191-5.363 8.319 8.319 0 0 1 7.844-6.588 10.366 10.366 0 0 1 4.716.663 8.2 8.2 0 0 1 5.046 7.449c.034.578 0 1.161 0 1.742 0 .648-.014 1.3 0 1.945.008.257-.045.392-.319.463a3.1 3.1 0 0 0-1.783 1.259Zm-3.614-18.113c0-.191.048-.282.254-.265a2.952 2.952 0 0 0 .56 0c.282-.034.34.092.332.346-.018.526 0 1.054 0 1.58s-.011 1.021 0 1.53c.008.254-.051.385-.334.351a2.543 2.543 0 0 0-.51 0c-.208.015-.306-.038-.3-.273q.012-1.638-.002-3.269Zm7.506 29.447c-.8-.023-1.6-.016-2.407 0-.262 0-.354-.075-.353-.349q.012-3.789 0-7.58c0-.308.111-.369.385-.364.8.014 1.606.018 2.407 0 .294-.007.369.083.366.369-.015 1.264-.007 2.528-.007 3.791s-.011 2.493.007 3.739c.006.312-.076.399-.398.394Zm.718-9.349c-.629-.033-1.26-.008-1.891-.008s-1.3-.01-1.944 0c-.273 0-.392-.048-.338-.373a2.3 2.3 0 0 1 4.545-.064c.052.319.003.464-.372.445Zm3.4 6.383c-.038-.273.046-.387.354-.384 1.516.016 3.032.011 4.548 0 .234 0 .35.048.321.306a2.186 2.186 0 0 0 0 .51c.036.282-.092.338-.347.332-.766-.014-1.532 0-2.3 0-.664 0-1.331-.04-1.992.014-.521.041-.668-.15-.585-.622a.522.522 0 0 0-.002-.157Zm4.775 2.979c-.711-.049-1.429-.012-2.143-.012s-1.464-.021-2.194.008c-.372.015-.459-.119-.446-.465.033-.82-.088-.693.714-.7 1.36-.007 2.723.025 4.082-.015.565-.016.42.327.435.623.018.313.053.586-.447.552Zm2.381-.44c0 .325-.067.443-.41.439s-.451-.081-.472-.45c-.049-.894.023-1.784.014-2.677s-.376-1.27-1.281-1.273q-2.38-.008-4.761 0c-.931 0-1.286.369-1.289 1.315 0 .893-.015 1.787.007 2.681.008.319-.088.4-.4.4-1.241.008-1.241.021-1.241-1.195v-6.659c0-.256 0-.442.336-.484.3-.036.385-.284.4-.571a3.734 3.734 0 0 0-.547-2.333c.2-.01.332-.022.463-.022q4.376 0 8.749-.01c.357 0 .45.086.448.446q-.026 5.191-.012 10.387Zm-2.187-12.2c0 .253-.094.331-.328.313a2.56 2.56 0 0 0-.458 0c-.284.031-.391-.068-.379-.366.022-.525 0-1.053 0-1.58 0-.492.018-.986 0-1.478-.015-.319.1-.432.41-.394a2.441 2.441 0 0 0 .458 0c.216-.015.3.064.3.291q-.018 1.6 0 3.208Zm1.033-3.228c0-.238.1-.291.306-.273a2.65 2.65 0 0 0 .51 0c.288-.034.339.108.332.357-.015.51 0 1.021 0 1.532s-.012 1.055 0 1.583c.01.258-.057.379-.335.346a2.648 2.648 0 0 0-.51 0c-.2.015-.306-.029-.3-.273q.022-1.64 0-3.277Zm.617-1.3c-.879.037-1.755-.025-2.631-.015a1.091 1.091 0 0 0-1.23 1.23c-.008 1.058-.016 2.116 0 3.174.007.34-.055.469-.435.463q-2.817-.03-5.633 0c-.518 0-.921-.336-1.419-.386-.213-.021-.12-.25-.12-.386-.008-1.074 0-2.15 0-3.226a9.29 9.29 0 0 0-4.739-8.406c-.044-.027-.137-.031-.111-.168h.439q7.963 0 15.926-.01c.4 0 .5.09.5.495a312.49 312.49 0 0 0 0 6.708c0 .454-.144.5-.541.519Zm-14.895-10.66c0 .476-.03.957.01 1.427.036.425-.137.547-.518.488a1.64 1.64 0 0 0-.357 0c-.213.018-.3-.059-.3-.286.008-1.07.011-2.142 0-3.214 0-.26.107-.324.335-.306a1.933 1.933 0 0 0 .41 0c.321-.04.458.06.436.41-.031.492-.008.98-.008 1.474Zm13.238-.015c0 .513-.021 1.025 0 1.537.018.327-.1.432-.41.394a2.255 2.255 0 0 0-.461 0c-.223.019-.3-.077-.3-.3.007-1.076.01-2.15 0-3.226 0-.234.087-.3.3-.283a1.494 1.494 0 0 0 .358 0c.394-.059.547.079.51.495-.026.448 0 .912 0 1.372Zm1.04-1.609c0-.187.042-.284.252-.273a2.257 2.257 0 0 0 .509 0c.328-.048.41.089.387.4-.025.509-.007 1.02-.007 1.53s-.01 1.02 0 1.53c.007.25-.048.387-.334.353a2.636 2.636 0 0 0-.509 0c-.206.015-.308-.036-.306-.273.021-1.091.018-2.179.012-3.267Zm1.151-3.331a13.358 13.358 0 0 0 0 1.64c.011.288-.078.358-.366.372-.912.045-1.819 0-2.734 0s-1.3.4-1.305 1.311c0 1.042-.012 2.083 0 3.124 0 .321-.062.437-.41.436q-4.581-.022-9.159 0c-.369 0-.41-.137-.41-.444.015-1.04.008-2.082 0-3.122 0-.912-.391-1.311-1.312-1.305s-1.817.049-2.734 0c-.291-.014-.376-.085-.365-.372.022-.58.031-1.162 0-1.74-.022-.361.122-.41.433-.41 2.987.011 5.972.007 8.959.007 2.953 0 5.905.008 8.858-.01.416-.007.589.055.55.507Z" data-name="Path 666" transform="translate(-73.726 -57.565)"/><path fill="url(#a)" d="M19.663 183.576c-.145-.422-.515-.506-.909-.522a3.734 3.734 0 0 0-3.144 1.208 17.728 17.728 0 0 0-1.885-4 .744.744 0 0 0-1.383.53 16.2 16.2 0 0 1-.366 5.081 12.131 12.131 0 0 1-1-1.67.791.791 0 0 0-.8-.514.749.749 0 0 0-.662.623c-.025.1-.07.191-.1.29a7.885 7.885 0 0 0 1.23 7.032c-.927.161-1.26.439-1.267 1.154q-.029 2.92 0 5.837a1.034 1.034 0 0 0 1.14 1.106q2.969.016 5.94 0a1.06 1.06 0 0 0 1.167-1.181q.008-2.842 0-5.684a1.074 1.074 0 0 0-1.165-1.191c-.137-.007-.273.037-.41-.059a25.691 25.691 0 0 1 2.152-5.81 3.373 3.373 0 0 1 1.065-1.23.825.825 0 0 0 .397-1Zm-6.616 2.25c.2-1.21.41-2.418.506-3.653.759 1.448 1.524 2.89 1.044 4.626a26.435 26.435 0 0 0-.945 3.964 8.1 8.1 0 0 1-.606-4.937Zm-2.734-.619c.5.867.994 1.565 1.487 2.262.2.284.071.793.124 1.195a14.6 14.6 0 0 0 .841 2.961.916.916 0 0 1-1.094-.392 6.928 6.928 0 0 1-1.355-6.026Zm5.905 7.529c.3 0 .368.1.366.383q-.019 2.586 0 5.174c0 .32-.092.41-.41.4-.9-.019-1.811 0-2.716 0-.871 0-1.742-.012-2.612 0-.316.007-.446-.052-.442-.41.021-1.725.016-3.45 0-5.174 0-.294.086-.369.372-.368q2.73.012 5.446-.005Zm-1.124-1.683a.841.841 0 0 1-.421.666 11.69 11.69 0 0 1 .327-2.4c.223-1.031.547-2.035.79-3.062a2.372 2.372 0 0 1 2.243-2.085 21.357 21.357 0 0 0-2.939 6.882Z" data-name="Path 667" transform="translate(-7.835 -155.254)"/><path fill="url(#a)" d="M19.685 0H1.293C.319 0 0 .312 0 1.282v13.777c0 .966.328 1.305 1.28 1.305h18.387c.921 0 1.274-.358 1.274-1.269V1.267C20.943.338 20.606 0 19.685 0Zm-.3 15.311c-2.972-.014-5.944 0-8.914 0s-5.978 0-8.966.008c-.355 0-.451-.082-.45-.446q.021-6.685 0-13.371c0-.41.124-.461.487-.461q8.939.016 17.879 0c.37 0 .488.07.487.468q-.025 6.66 0 13.32c0 .425-.153.481-.526.481Z" data-name="Path 668"/><path fill="url(#a)" d="M33.471 17.34H19.18c-.671 0-.82.137-.82.8v9.987c0 .684.12.809.8.811H33.5c.645 0 .756-.107.756-.738V18.111c.004-.638-.133-.771-.785-.771ZM19.8 18.376q6.527.016 13.055 0c.186 0 .37-.044.368.262-.012 1.27 0 2.541 0 3.964-.273-.465-.462-.8-.658-1.128a1.021 1.021 0 0 0-1.914-.012c-.465.781-.913 1.564-1.405 2.406L27.9 21.554c-.582-1-1.434-1-2.019.012q-1.058 1.834-2.11 3.674a.554.554 0 0 1-.547.351q-1.714-.031-3.43 0c-.325 0-.394-.111-.392-.41q.016-3.2 0-6.4c0-.323.086-.406.4-.406Zm9.2 7.17h-4.2l2.1-3.635Zm4.226 1.554c-.016.8 0 .8-.794.8h-6.143c-2.116 0-4.238-.018-6.35.014-.477.008-.6-.137-.535-.569a.8.8 0 0 0 0-.256c-.056-.355.083-.457.444-.455q6.478.019 12.954 0c.398-.005.432.138.424.466Zm-.684-1.515H30.6a.618.618 0 0 1-.565-.957q.734-1.284 1.476-2.563c.015-.026.052-.04.122-.092l1.435 2.489a1.291 1.291 0 0 1 .072.137q.461.986-.6.986Z" data-name="Path 669" transform="translate(-15.85 -14.97)"/><path fill="url(#a)" d="M39.266 37.1a.76.76 0 0 1 .771.731.741.741 0 0 1-.726.768.733.733 0 0 1-.764-.725.749.749 0 0 1 .719-.774Z" data-name="Path 670" transform="translate(-33.277 -32.028)"/><circle cx="1.404" cy="1.404" r="1.404" fill="url(#a)" data-name="Ellipse 65" transform="translate(4.934 4.206)"/></svg>