<svg xmlns="http://www.w3.org/2000/svg" width="35.294" height="35.294"><defs><linearGradient id="a" x1=".655" x2=".128" y1=".27" y2=".953" gradientUnits="objectBoundingBox"><stop offset="0" stop-color="#80589f"/><stop offset="1" stop-color="#9bd2f7"/></linearGradient></defs><path fill="url(#a)" d="M35.724 17.508H30.6V16.37a.569.569 0 0 0-.569-.569h-.787l-.569-1.139h3.633a1.708 1.708 0 0 0 1.708-1.708V3.846a1.708 1.708 0 0 0-1.708-1.708H19.785a1.708 1.708 0 0 0-1.708 1.708v9.108a1.708 1.708 0 0 0 1.708 1.708h3.633l-.569 1.138h-.787a.569.569 0 0 0-.569.569v1.139H15.8v-2.846a.569.569 0 0 0-.569-.569h-.9l1.305-1.305-.8-.8-1.305 1.305v-1.477h-1.146v2.277h-.569a.569.569 0 0 0-.569.569v2.846H7.262V15.8a.569.569 0 0 0-.569-.569H5.554v-4.658a1.708 1.708 0 0 0 1.139-1.6 1.68 1.68 0 0 0-.171-.731l3.3-3.3.854.854V8.4a.569.569 0 0 0 .351.526.562.562 0 0 0 .218.043.569.569 0 0 0 .4-.167L16.2 4.249a.569.569 0 0 0-.4-.972h-2.61l-2.11-2.11a.569.569 0 0 0-.8 0L8.567 2.875a.569.569 0 0 0 0 .8l.451.451-3.3 3.3a1.68 1.68 0 0 0-.732-.171 1.7 1.7 0 0 0-.569 3.311v4.659h-1.14a.569.569 0 0 0-.569.569v1.708H1.569a.569.569 0 0 0-.569.576v3.416a.569.569 0 0 0 .569.569h1.708v13.661a.569.569 0 0 0 .569.569h2.277a.569.569 0 0 0 .569-.524l1.095-13.707h21.719L30.6 35.77a.569.569 0 0 0 .569.524h2.277a.569.569 0 0 0 .569-.569V22.062h1.708a.569.569 0 0 0 .569-.569v-3.415a.569.569 0 0 0-.568-.57ZM11.816 7.026V5.79l1.374-1.374h1.236Zm-1.139-4.652 1.472 1.472-.9.9-1.475-1.469ZM4.985 8.4a.569.569 0 1 1-.569.569.569.569 0 0 1 .569-.569Zm14.8-5.123h12.524a.569.569 0 0 1 .569.569v6.262H19.216V3.846a.569.569 0 0 1 .569-.569Zm-.569 9.677v-1.707h13.662v1.708a.569.569 0 0 1-.569.569H19.785a.569.569 0 0 1-.569-.57Zm5.475 1.708H27.4l.569 1.139h-3.85Zm-2.06 2.277h6.831v.569h-6.83Zm-10.246-1.708h2.277v2.277h-2.277ZM3.846 16.37h2.277v1.139H3.846ZM5.6 35.155H4.416V22.062h2.23Zm27.28 0H31.7l-1.052-13.093h2.23Zm2.277-14.231H2.139v-2.277h33.016Z" transform="translate(-1 -1)"/></svg>