<svg xmlns="http://www.w3.org/2000/svg" width="36.067" height="27.755"><defs><linearGradient id="a" x2="1" y1=".505" y2=".505" gradientUnits="objectBoundingBox"><stop offset="0" stop-color="#9bd2f7"/><stop offset="1" stop-color="#80589f"/></linearGradient></defs><path fill="url(#a)" d="M36.067 60.409a1.409 1.409 0 0 1-1.409 1.409h-6.9v6.9a1.409 1.409 0 0 1-1.409 1.409h-6.9v6.9a1.409 1.409 0 0 1-1.409 1.409h-6.9v6.9a1.409 1.409 0 0 1-1.409 1.409H1.409a1.409 1.409 0 0 1 0-2.818h6.9v-6.9a1.409 1.409 0 0 1 1.409-1.409h6.9v-6.9a1.409 1.409 0 0 1 1.409-1.409h6.9v-6.9A1.409 1.409 0 0 1 26.346 59h8.312a1.409 1.409 0 0 1 1.409 1.409Zm-4.3 14.365h-5.348a1.409 1.409 0 0 0 0 2.818h1.952l-6.758 6.758a1.409 1.409 0 0 0 1.992 1.993l6.758-6.758v1.952a1.409 1.409 0 1 0 2.818 0v-5.354a1.411 1.411 0 0 0-1.409-1.409Z" data-name="stairs (2)" transform="translate(0 -59)"/></svg>