<svg width="36" height="22" viewBox="0 0 36 22" fill="none" xmlns="http://www.w3.org/2000/svg">
<path d="M0 10.5652L12.716 0H35.562V21.2151H12.716L0 10.5652Z" fill="white"/>
<path d="M18.5286 3.86239C18.0845 3.38617 17.3385 3.36012 16.8623 3.8042C16.386 4.24828 16.36 4.99433 16.8041 5.47054L28.8359 18.3731C29.28 18.8493 30.026 18.8754 30.5022 18.4313C30.9784 17.9872 31.0045 17.2411 30.5604 16.7649L18.5286 3.86239Z" fill="black"/>
<path d="M16.8046 16.7648C16.3606 17.241 16.3866 17.9871 16.8628 18.4312C17.339 18.8752 18.0851 18.8492 18.5292 18.373L30.561 5.47042C31.0051 4.99421 30.979 4.24816 30.5028 3.80408C30.0266 3.36 29.2805 3.38605 28.8365 3.86227L16.8046 16.7648Z" fill="black"/>
</svg>
