<svg width="40" height="40" viewBox="0 0 40 40" fill="none" xmlns="http://www.w3.org/2000/svg">
<g clip-path="url(#clip0_2249_87)">
<path d="M13.0883 32.1507C12.6724 31.7348 11.9999 31.7348 11.584 32.1507C11.1681 32.5666 11.1681 33.2391 11.584 33.655L12.7875 34.8585H7.90277C4.72595 34.8585 2.15088 32.2745 2.15088 29.1066V25.5404C2.15088 24.9564 1.67303 24.4785 1.08899 24.4785C0.504949 24.4785 0.0270996 24.9564 0.0270996 25.5404V29.1066C0.0270996 33.4515 3.55788 36.9822 7.90277 36.9822H12.7875L11.584 38.1857C11.1681 38.6016 11.1681 39.2742 11.584 39.6901C11.7875 39.8936 12.0618 39.9998 12.3362 39.9998C12.6105 39.9998 12.8759 39.8936 13.0883 39.6901L16.1059 36.6725C16.5218 36.2566 16.5218 35.5841 16.1059 35.1682L13.0883 32.1507Z" fill="white"/>
<path opacity="0.5" d="M18.6106 0.00195312H1.16907C0.585027 0.00195312 0.107178 0.479803 0.107178 1.06384V18.5054C0.107178 19.0894 0.585027 19.5672 1.16907 19.5672H18.6106C19.1946 19.5672 19.6725 19.0894 19.6725 18.5054V1.06384C19.6725 0.479803 19.2035 0.00195312 18.6106 0.00195312ZM17.5487 17.4435H2.23095V2.12573H17.5487V17.4435Z" fill="white"/>
<path d="M38.5032 20H21.0616C20.4776 20 19.9998 20.4778 19.9998 21.0619V38.5034C19.9998 39.0874 20.4776 39.5653 21.0616 39.5653H38.5032C39.0872 39.5653 39.565 39.0874 39.565 38.5034V21.0619C39.565 20.4778 39.096 20 38.5032 20ZM37.4413 37.4415H22.1235V22.1238H37.4413V37.4415Z" fill="white"/>
<path d="M32.0872 3.01974H27.2025L28.406 1.81627C28.8219 1.40037 28.8219 0.727836 28.406 0.31193C27.9901 -0.103977 27.3176 -0.103977 26.9017 0.31193L23.893 3.32946C23.4771 3.74537 23.4771 4.4179 23.893 4.8338L26.9105 7.85134C27.114 8.05486 27.3884 8.16105 27.6627 8.16105C27.937 8.16105 28.2025 8.05486 28.4149 7.85134C28.8308 7.43543 28.8308 6.7629 28.4149 6.34699L27.2114 5.14352H32.0961C35.2729 5.14352 37.848 7.72745 37.848 10.8954V14.4616C37.848 15.0456 38.3258 15.5235 38.9099 15.5235C39.4939 15.5235 39.9717 15.0456 39.9717 14.4616V10.8954C39.9717 6.55052 36.4321 3.01974 32.0872 3.01974Z" fill="white"/>
</g>
<defs>
<clipPath id="clip0_2249_87">
<rect width="40" height="40" fill="white"/>
</clipPath>
</defs>
</svg>
