<?xml version="1.0" encoding="utf-8"?>
<!-- Generator: Adobe Illustrator 24.1.2, SVG Export Plug-In . SVG Version: 6.00 Build 0)  -->
<svg version="1.1" id="Component_33_3" xmlns="http://www.w3.org/2000/svg" xmlns:xlink="http://www.w3.org/1999/xlink" x="0px"
	 y="0px" viewBox="0 0 43.7 35.9" style="enable-background:new 0 0 43.7 35.9;" xml:space="preserve">
<style type="text/css">
	.st0{fill:#FFFFFF;}
</style>
<path id="wifi2" class="st0" d="M23.5,23.4c2.4,0,4.3,1.9,4.3,4.3S25.9,32,23.5,32s-4.3-1.9-4.3-4.3S21.1,23.4,23.5,23.4L23.5,23.4z
	 M43,16.6c0.9-1.1,0.9-2.6,0-3.7c-5.4-6.4-12.3-9.9-19.6-9.9S9.2,6.5,3.9,12.9C3,14,3,15.5,3.9,16.6c0.7,0.9,1.9,1,2.8,0.3
	c0.1-0.1,0.3-0.2,0.4-0.4c4.5-5.4,10.4-8.4,16.5-8.4s11.9,3,16.5,8.4c0.7,0.9,1.9,1,2.8,0.4C42.8,16.8,42.9,16.7,43,16.6L43,16.6z
	 M15.6,22.6c1.9-2.3,4.7-3.8,7.7-4h0.2c3,0.2,5.8,1.6,7.7,4c0.7,0.9,1.9,1,2.8,0.3c0.1-0.1,0.3-0.2,0.4-0.4c0.9-1.1,0.9-2.6,0-3.7
	c-2.9-3.4-7-5.5-10.8-5.5h-0.2c-3.8,0-7.9,2.1-10.8,5.5c-0.9,1.1-0.9,2.6,0,3.7c0.7,0.9,1.9,1,2.8,0.4
	C15.4,22.9,15.5,22.7,15.6,22.6L15.6,22.6z"/>
<g id="Group_298" transform="translate(-273.544 -272.532) rotate(39)">
	<path id="Rectangle_446" d="M416.7,16.2L416.7,16.2c0.8,0,1.5,0.7,1.5,1.5V56c0,0.8-0.7,1.5-1.5,1.5l0,0c-0.8,0-1.5-0.7-1.5-1.5
		V17.7C415.2,16.9,415.8,16.2,416.7,16.2z"/>
	<path id="Rectangle_445" class="st0" d="M414.5,17L414.5,17c0.8,0,1.5,0.7,1.5,1.5v38.2c0,0.8-0.7,1.5-1.5,1.5l0,0
		c-0.8,0-1.5-0.7-1.5-1.5l0-38.2C413,17.7,413.7,17,414.5,17z"/>
</g>
</svg>
